<?xml version="1.0" encoding="UTF-8" standalone="no"?>
<!DOCTYPE svg PUBLIC "-//W3C//DTD SVG 1.1//EN"
 "http://www.w3.org/Graphics/SVG/1.1/DTD/svg11.dtd">
<!-- Generated by graphviz version 2.40.1 (20161225.0304)
 -->
<!-- Title: G Pages: 1 -->
<svg width="290pt" height="276pt"
 viewBox="0.00 0.00 289.56 276.00" xmlns="http://www.w3.org/2000/svg" xmlns:xlink="http://www.w3.org/1999/xlink">
<g id="graph0" class="graph" transform="scale(1 1) rotate(0) translate(4 272)">
<title>G</title>
<polygon fill="#ffffff" stroke="transparent" points="-4,4 -4,-272 285.563,-272 285.563,4 -4,4"/>
<!-- A0 -->
<g id="node1" class="node">
<title>A0</title>
<polygon fill="none" stroke="#000000" points="100.1711,-125 7.2709,-125 7.2709,-89 100.1711,-89 100.1711,-125"/>
<text text-anchor="middle" x="53.721" y="-104" font-family="Helvetica,sans-Serif" font-size="10.00" fill="#000000">computePrime</text>
</g>
<!-- A1 -->
<g id="node2" class="node">
<title>A1</title>
<polygon fill="none" stroke="#000000" points="270.9475,-206 168.0575,-206 168.0575,-170 270.9475,-170 270.9475,-206"/>
<text text-anchor="middle" x="219.5025" y="-191" font-family="Helvetica,sans-Serif" font-size="10.00" fill="#000000">write Preperiodic</text>
<text text-anchor="middle" x="219.5025" y="-179" font-family="Helvetica,sans-Serif" font-size="10.00" fill="#000000">Stats</text>
</g>
<!-- A0&#45;&gt;A1 -->
<g id="edge1" class="edge">
<title>A0&#45;&gt;A1</title>
<path fill="none" stroke="#000000" d="M87.0555,-125.1078C107.2479,-135.8874 133.6226,-149.635 157.442,-161 160.7659,-162.5859 164.2062,-164.1883 167.6845,-165.7792"/>
<polygon fill="#000000" stroke="#000000" points="176.9271,-169.9448 165.9612,-169.9384 172.3687,-167.8903 167.8102,-165.8358 167.8102,-165.8358 167.8102,-165.8358 172.3687,-167.8903 169.6593,-161.7332 176.9271,-169.9448 176.9271,-169.9448"/>
</g>
<!-- A2 -->
<g id="node3" class="node">
<title>A2</title>
<polygon fill="none" stroke="#000000" points="281.6236,-152 157.3814,-152 157.3814,-116 281.6236,-116 281.6236,-152"/>
<text text-anchor="middle" x="219.5025" y="-137" font-family="Helvetica,sans-Serif" font-size="10.00" fill="#000000">write ZeroComponent</text>
<text text-anchor="middle" x="219.5025" y="-125" font-family="Helvetica,sans-Serif" font-size="10.00" fill="#000000">Isomorphism Stats</text>
</g>
<!-- A0&#45;&gt;A2 -->
<g id="edge2" class="edge">
<title>A0&#45;&gt;A2</title>
<path fill="none" stroke="#000000" d="M100.3416,-114.5929C114.7968,-116.9471 131.0851,-119.5999 146.8695,-122.1706"/>
<polygon fill="#000000" stroke="#000000" points="157.145,-123.8442 146.5517,-126.6781 152.21,-123.0404 147.2751,-122.2366 147.2751,-122.2366 147.2751,-122.2366 152.21,-123.0404 147.9985,-117.7951 157.145,-123.8442 157.145,-123.8442"/>
</g>
<!-- A3 -->
<g id="node4" class="node">
<title>A3</title>
<polygon fill="none" stroke="#000000" points="276.675,-98 162.33,-98 162.33,-62 276.675,-62 276.675,-98"/>
<text text-anchor="middle" x="219.5025" y="-83" font-family="Helvetica,sans-Serif" font-size="10.00" fill="#000000">write AllComponent</text>
<text text-anchor="middle" x="219.5025" y="-71" font-family="Helvetica,sans-Serif" font-size="10.00" fill="#000000">Size Stats</text>
</g>
<!-- A0&#45;&gt;A3 -->
<g id="edge3" class="edge">
<title>A0&#45;&gt;A3</title>
<path fill="none" stroke="#000000" d="M100.3416,-99.4071C116.4331,-96.7864 134.7963,-93.7957 152.2071,-90.9601"/>
<polygon fill="#000000" stroke="#000000" points="162.3239,-89.3124 153.1773,-95.3614 157.3889,-90.1162 152.4539,-90.9199 152.4539,-90.9199 152.4539,-90.9199 157.3889,-90.1162 151.7305,-86.4785 162.3239,-89.3124 162.3239,-89.3124"/>
</g>
<!-- A4 -->
<g id="node5" class="node">
<title>A4</title>
<polygon fill="none" stroke="#000000" points="276.675,-44 162.33,-44 162.33,0 276.675,0 276.675,-44"/>
<text text-anchor="middle" x="219.5025" y="-31" font-family="Helvetica,sans-Serif" font-size="10.00" fill="#000000">write AllComponent</text>
<text text-anchor="middle" x="219.5025" y="-19" font-family="Helvetica,sans-Serif" font-size="10.00" fill="#000000">Tree Isomorphism</text>
<text text-anchor="middle" x="219.5025" y="-7" font-family="Helvetica,sans-Serif" font-size="10.00" fill="#000000">Stats</text>
</g>
<!-- A0&#45;&gt;A4 -->
<g id="edge4" class="edge">
<title>A0&#45;&gt;A4</title>
<path fill="none" stroke="#000000" d="M88.2199,-88.8549C108.3629,-78.3065 134.2932,-64.8065 157.442,-53 160.1963,-51.5952 163.0223,-50.1605 165.8779,-48.7158"/>
<polygon fill="#000000" stroke="#000000" points="175.0474,-44.0931 168.1437,-52.6131 170.5826,-46.344 166.1179,-48.5949 166.1179,-48.5949 166.1179,-48.5949 170.5826,-46.344 164.0921,-44.5766 175.0474,-44.0931 175.0474,-44.0931"/>
</g>
<!-- A5 -->
<g id="node6" class="node">
<title>A5</title>
<polygon fill="none" stroke="#000000" points="107.6639,-264 -.2219,-264 -.2219,-228 107.6639,-228 107.6639,-264"/>
<text text-anchor="middle" x="53.721" y="-243" font-family="Helvetica,sans-Serif" font-size="10.00" fill="#000000">buildPrimePortrait</text>
</g>
<!-- A6 -->
<g id="node7" class="node">
<title>A6</title>
<polygon fill="none" stroke="#000000" points="262.8896,-268 176.1154,-268 176.1154,-224 262.8896,-224 262.8896,-268"/>
<text text-anchor="end" x="248.946" y="-255" font-family="Helvetica,sans-Serif" font-size="10.00" fill="#000000">matrixWriter</text>
<text text-anchor="middle" x="219.5025" y="-231" font-family="Helvetica,sans-Serif" font-size="10.00" fill="#000000">return: matrix</text>
</g>
<!-- A5&#45;&gt;A6 -->
<g id="edge5" class="edge">
<title>A5&#45;&gt;A6</title>
<path fill="none" stroke="#000000" d="M107.5455,-246C126.2123,-246 147.1308,-246 165.7886,-246"/>
<polygon fill="#000000" stroke="#000000" points="175.8929,-246 165.8929,-250.5001 170.8929,-246 165.8929,-246.0001 165.8929,-246.0001 165.8929,-246.0001 170.8929,-246 165.8928,-241.5001 175.8929,-246 175.8929,-246"/>
</g>
</g>
</svg>
